<?xml version="1.0" encoding="UTF-8" standalone="no"?><svg xmlns="http://www.w3.org/2000/svg" xmlns:xlink="http://www.w3.org/1999/xlink" contentScriptType="application/ecmascript" contentStyleType="text/css" height="877px" preserveAspectRatio="none" style="width:1244px;height:877px;background:#FFFFFF;" version="1.1" viewBox="0 0 1244 877" width="1244px" zoomAndPan="magnify"><defs><filter height="300%" id="f1txat0my34gf7" width="300%" x="-1" y="-1"><feGaussianBlur result="blurOut" stdDeviation="2.0"/><feColorMatrix in="blurOut" result="blurOut2" type="matrix" values="0 0 0 0 0 0 0 0 0 0 0 0 0 0 0 0 0 0 .4 0"/><feOffset dx="4.0" dy="4.0" in="blurOut2" result="blurOut3"/><feBlend in="SourceGraphic" in2="blurOut3" mode="normal"/></filter></defs><g><!--MD5=[0c9bf41ccd8a01c349529ae8d5b030eb]
cluster hu.webhejj.perspektive.uml--><polygon fill="#FFFFFF" filter="url(#f1txat0my34gf7)" points="16,6,217,6,224,28.4883,1227,28.4883,1227,870.18,16,870.18,16,6" style="stroke:#000000;stroke-width:1.5;"/><line style="stroke:#000000;stroke-width:1.5;" x1="16" x2="224" y1="28.4883" y2="28.4883"/><text fill="#000000" font-family="sans-serif" font-size="14" font-weight="bold" lengthAdjust="spacing" textLength="195" x="20" y="21.5352">hu.webhejj.perspektive.uml</text><!--MD5=[e537ded6a6322661476b48a574652026]
class hu.webhejj.perspektive.uml.UmlClass$Kind--><rect codeLine="2" fill="#FEFECE" filter="url(#f1txat0my34gf7)" height="106.0859" id="hu.webhejj.perspektive.uml.UmlClass$Kind" style="stroke:#A80036;stroke-width:1.5;" width="118" x="56" y="218.18"/><ellipse cx="71" cy="237.3128" fill="#EB937F" rx="11" ry="11" style="stroke:#A80036;stroke-width:1.0;"/><path d="M74.6143,243.8128 L66.8945,243.8128 L66.8945,231.4197 L74.6143,231.4197 L74.6143,233.5779 L69.3433,233.5779 L69.3433,236.2508 L74.1162,236.2508 L74.1162,238.409 L69.3433,238.409 L69.3433,241.6546 L74.6143,241.6546 Z " fill="#000000"/><text fill="#000000" font-family="sans-serif" font-size="12" font-style="italic" lengthAdjust="spacing" textLength="43" x="106.5" y="234.7816">«kotlin»</text><text fill="#000000" font-family="sans-serif" font-size="12" lengthAdjust="spacing" textLength="86" x="85" y="248.9144">UmlClass$Kind</text><line style="stroke:#A80036;stroke-width:1.5;" x1="57" x2="173" y1="256.4456" y2="256.4456"/><text fill="#000000" font-family="sans-serif" font-size="11" lengthAdjust="spacing" textLength="59" x="62" y="271.0804">INTERFACE</text><text fill="#000000" font-family="sans-serif" font-size="11" lengthAdjust="spacing" textLength="34" x="62" y="284.0355">CLASS</text><text fill="#000000" font-family="sans-serif" font-size="11" lengthAdjust="spacing" textLength="71" x="62" y="296.9905">DATA_CLASS</text><text fill="#000000" font-family="sans-serif" font-size="11" lengthAdjust="spacing" textLength="31" x="62" y="309.9456">ENUM</text><line style="stroke:#A80036;stroke-width:1.5;" x1="57" x2="173" y1="316.2659" y2="316.2659"/><!--MD5=[16223c5801d36284e7206c3d49f24ac5]
class hu.webhejj.perspektive.uml.UmlCardinality--><rect codeLine="12" fill="#FEFECE" filter="url(#f1txat0my34gf7)" height="93.1309" id="hu.webhejj.perspektive.uml.UmlCardinality" style="stroke:#A80036;stroke-width:1.5;" width="115" x="277.5" y="537.68"/><ellipse cx="292.5" cy="556.8128" fill="#EB937F" rx="11" ry="11" style="stroke:#A80036;stroke-width:1.0;"/><path d="M296.1143,563.3128 L288.3945,563.3128 L288.3945,550.9197 L296.1143,550.9197 L296.1143,553.0779 L290.8433,553.0779 L290.8433,555.7508 L295.6162,555.7508 L295.6162,557.909 L290.8433,557.909 L290.8433,561.1546 L296.1143,561.1546 Z " fill="#000000"/><text fill="#000000" font-family="sans-serif" font-size="12" font-style="italic" lengthAdjust="spacing" textLength="43" x="326.5" y="554.2816">«kotlin»</text><text fill="#000000" font-family="sans-serif" font-size="12" lengthAdjust="spacing" textLength="83" x="306.5" y="568.4144">UmlCardinality</text><line style="stroke:#A80036;stroke-width:1.5;" x1="278.5" x2="391.5" y1="575.9456" y2="575.9456"/><text fill="#000000" font-family="sans-serif" font-size="11" lengthAdjust="spacing" textLength="56" x="283.5" y="590.5804">OPTIONAL</text><text fill="#000000" font-family="sans-serif" font-size="11" lengthAdjust="spacing" textLength="43" x="283.5" y="603.5355">SCALAR</text><text fill="#000000" font-family="sans-serif" font-size="11" lengthAdjust="spacing" textLength="44" x="283.5" y="616.4905">VECTOR</text><line style="stroke:#A80036;stroke-width:1.5;" x1="278.5" x2="391.5" y1="622.8109" y2="622.8109"/><!--MD5=[ca179a2658169457fcef315d2bc8d2d0]
class hu.webhejj.perspektive.uml.UmlMember$Kind--><rect codeLine="21" fill="#FEFECE" filter="url(#f1txat0my34gf7)" height="93.1309" id="hu.webhejj.perspektive.uml.UmlMember$Kind" style="stroke:#A80036;stroke-width:1.5;" width="136" x="476" y="537.68"/><ellipse cx="491" cy="556.8128" fill="#EB937F" rx="11" ry="11" style="stroke:#A80036;stroke-width:1.0;"/><path d="M494.6143,563.3128 L486.8945,563.3128 L486.8945,550.9197 L494.6143,550.9197 L494.6143,553.0779 L489.3433,553.0779 L489.3433,555.7508 L494.1162,555.7508 L494.1162,557.909 L489.3433,557.909 L489.3433,561.1546 L494.6143,561.1546 Z " fill="#000000"/><text fill="#000000" font-family="sans-serif" font-size="12" font-style="italic" lengthAdjust="spacing" textLength="43" x="535.5" y="554.2816">«kotlin»</text><text fill="#000000" font-family="sans-serif" font-size="12" lengthAdjust="spacing" textLength="104" x="505" y="568.4144">UmlMember$Kind</text><line style="stroke:#A80036;stroke-width:1.5;" x1="477" x2="611" y1="575.9456" y2="575.9456"/><text fill="#000000" font-family="sans-serif" font-size="11" lengthAdjust="spacing" textLength="55" x="482" y="590.5804">PROPERTY</text><text fill="#000000" font-family="sans-serif" font-size="11" lengthAdjust="spacing" textLength="47" x="482" y="603.5355">METHOD</text><text fill="#000000" font-family="sans-serif" font-size="11" lengthAdjust="spacing" textLength="72" x="482" y="616.4905">ENUM_VALUE</text><line style="stroke:#A80036;stroke-width:1.5;" x1="477" x2="611" y1="622.8109" y2="622.8109"/><!--MD5=[d8232ffb5c7d3a990df7d788306374c5]
class hu.webhejj.perspektive.uml.UmlName--><rect codeLine="30" fill="#FEFECE" filter="url(#f1txat0my34gf7)" height="80.1758" id="hu.webhejj.perspektive.uml.UmlName" style="stroke:#A80036;stroke-width:1.5;" width="110" x="809" y="754.18"/><ellipse cx="833.9" cy="773.3128" fill="#DA70D6" rx="11" ry="11" style="stroke:#A80036;stroke-width:1.0;"/><path d="M832.9859,769.6278 L832.9859,777.6048 L833.65,777.6048 Q835.0943,777.6048 835.7086,776.6959 Q836.3229,775.7869 836.3229,773.6038 Q836.3229,771.4373 835.7086,770.5325 Q835.0943,769.6278 833.65,769.6278 Z M830.5372,767.4197 L833.1603,767.4197 Q836.1983,767.4197 837.5348,768.8682 Q838.8712,770.3167 838.8712,773.6038 Q838.8712,776.8992 837.5348,778.356 Q836.1983,779.8128 833.1603,779.8128 L830.5372,779.8128 Z " fill="#000000"/><text fill="#000000" font-family="sans-serif" font-size="12" font-style="italic" lengthAdjust="spacing" textLength="43" x="856.6" y="770.7816">«kotlin»</text><text fill="#000000" font-family="sans-serif" font-size="12" lengthAdjust="spacing" textLength="56" x="850.1" y="784.9144">UmlName</text><line style="stroke:#A80036;stroke-width:1.5;" x1="810" x2="918" y1="792.4456" y2="792.4456"/><ellipse cx="820" cy="803.4456" rx="3" ry="3" style="stroke:#038048;stroke-width:1.0;fill:none;"/><text fill="#000000" font-family="sans-serif" font-size="11" lengthAdjust="spacing" textLength="84" x="829" y="807.0804">qualified: String</text><ellipse cx="820" cy="816.4007" rx="3" ry="3" style="stroke:#038048;stroke-width:1.0;fill:none;"/><text fill="#000000" font-family="sans-serif" font-size="11" lengthAdjust="spacing" textLength="73" x="829" y="820.0355">simple: String</text><line style="stroke:#A80036;stroke-width:1.5;" x1="810" x2="918" y1="826.3558" y2="826.3558"/><!--MD5=[2d7b80e6911580645b9c1a5f887ed273]
class hu.webhejj.perspektive.uml.UmlTypeProjection--><rect codeLine="38" fill="#FEFECE" filter="url(#f1txat0my34gf7)" height="54.2656" id="hu.webhejj.perspektive.uml.UmlTypeProjection" style="stroke:#A80036;stroke-width:1.5;" width="140" x="794" y="557.18"/><ellipse cx="809" cy="576.3128" fill="#DA70D6" rx="11" ry="11" style="stroke:#A80036;stroke-width:1.0;"/><path d="M808.0859,572.6278 L808.0859,580.6048 L808.75,580.6048 Q810.1943,580.6048 810.8086,579.6959 Q811.4229,578.7869 811.4229,576.6038 Q811.4229,574.4373 810.8086,573.5325 Q810.1943,572.6278 808.75,572.6278 Z M805.6372,570.4197 L808.2603,570.4197 Q811.2983,570.4197 812.6348,571.8682 Q813.9712,573.3167 813.9712,576.6038 Q813.9712,579.8992 812.6348,581.356 Q811.2983,582.8128 808.2603,582.8128 L805.6372,582.8128 Z " fill="#000000"/><text fill="#000000" font-family="sans-serif" font-size="12" font-style="italic" lengthAdjust="spacing" textLength="43" x="855.5" y="573.7816">«kotlin»</text><text fill="#000000" font-family="sans-serif" font-size="12" lengthAdjust="spacing" textLength="108" x="823" y="587.9144">UmlTypeProjection</text><line style="stroke:#A80036;stroke-width:1.5;" x1="795" x2="933" y1="595.4456" y2="595.4456"/><line style="stroke:#A80036;stroke-width:1.5;" x1="795" x2="933" y1="603.4456" y2="603.4456"/><!--MD5=[6545a93e43d70beec37a75d1dd38dfcb]
class hu.webhejj.perspektive.uml.UmlVisibility--><rect codeLine="45" fill="#FEFECE" filter="url(#f1txat0my34gf7)" height="106.0859" id="hu.webhejj.perspektive.uml.UmlVisibility" style="stroke:#A80036;stroke-width:1.5;" width="101" x="93.5" y="531.18"/><ellipse cx="108.5" cy="550.3128" fill="#EB937F" rx="11" ry="11" style="stroke:#A80036;stroke-width:1.0;"/><path d="M112.1143,556.8128 L104.3945,556.8128 L104.3945,544.4197 L112.1143,544.4197 L112.1143,546.5779 L106.8433,546.5779 L106.8433,549.2508 L111.6162,549.2508 L111.6162,551.409 L106.8433,551.409 L106.8433,554.6546 L112.1143,554.6546 Z " fill="#000000"/><text fill="#000000" font-family="sans-serif" font-size="12" font-style="italic" lengthAdjust="spacing" textLength="43" x="135.5" y="547.7816">«kotlin»</text><text fill="#000000" font-family="sans-serif" font-size="12" lengthAdjust="spacing" textLength="69" x="122.5" y="561.9144">UmlVisibility</text><line style="stroke:#A80036;stroke-width:1.5;" x1="94.5" x2="193.5" y1="569.4456" y2="569.4456"/><text fill="#000000" font-family="sans-serif" font-size="11" lengthAdjust="spacing" textLength="44" x="99.5" y="584.0804">PRIVATE</text><text fill="#000000" font-family="sans-serif" font-size="11" lengthAdjust="spacing" textLength="64" x="99.5" y="597.0355">PROTECTED</text><text fill="#000000" font-family="sans-serif" font-size="11" lengthAdjust="spacing" textLength="37" x="99.5" y="609.9905">PUBLIC</text><text fill="#000000" font-family="sans-serif" font-size="11" lengthAdjust="spacing" textLength="53" x="99.5" y="622.9456">INTERNAL</text><line style="stroke:#A80036;stroke-width:1.5;" x1="94.5" x2="193.5" y1="629.2659" y2="629.2659"/><!--MD5=[d08ef4e9ce4ff0d601d6be46163fa11b]
class hu.webhejj.perspektive.uml.UmlMember--><rect codeLine="55" fill="#FEFECE" filter="url(#f1txat0my34gf7)" height="106.0859" id="hu.webhejj.perspektive.uml.UmlMember" style="stroke:#A80036;stroke-width:1.5;" width="130" x="479" y="218.18"/><ellipse cx="506.6" cy="237.3128" fill="#DA70D6" rx="11" ry="11" style="stroke:#A80036;stroke-width:1.0;"/><path d="M505.6859,233.6278 L505.6859,241.6048 L506.35,241.6048 Q507.7943,241.6048 508.4086,240.6959 Q509.0229,239.7869 509.0229,237.6038 Q509.0229,235.4373 508.4086,234.5325 Q507.7943,233.6278 506.35,233.6278 Z M503.2372,231.4197 L505.8603,231.4197 Q508.8983,231.4197 510.2348,232.8682 Q511.5712,234.3167 511.5712,237.6038 Q511.5712,240.8992 510.2348,242.356 Q508.8983,243.8128 505.8603,243.8128 L503.2372,243.8128 Z " fill="#000000"/><text fill="#000000" font-family="sans-serif" font-size="12" font-style="italic" lengthAdjust="spacing" textLength="43" x="536.9" y="234.7816">«kotlin»</text><text fill="#000000" font-family="sans-serif" font-size="12" lengthAdjust="spacing" textLength="70" x="523.4" y="248.9144">UmlMember</text><line style="stroke:#A80036;stroke-width:1.5;" x1="480" x2="608" y1="256.4456" y2="256.4456"/><ellipse cx="490" cy="267.4456" rx="3" ry="3" style="stroke:#038048;stroke-width:1.0;fill:none;"/><text fill="#000000" font-family="sans-serif" font-size="11" lengthAdjust="spacing" textLength="104" x="499" y="271.0804">isAbstract: boolean</text><ellipse cx="490" cy="280.4007" rx="3" ry="3" style="stroke:#038048;stroke-width:1.0;fill:none;"/><text fill="#000000" font-family="sans-serif" font-size="11" lengthAdjust="spacing" textLength="87" x="499" y="284.0355">isStatic: boolean</text><ellipse cx="490" cy="293.3558" rx="3" ry="3" style="stroke:#038048;stroke-width:1.0;fill:none;"/><text fill="#000000" font-family="sans-serif" font-size="11" lengthAdjust="spacing" textLength="67" x="499" y="296.9905">name: String</text><ellipse cx="490" cy="306.3109" rx="3" ry="3" style="stroke:#038048;stroke-width:1.0;fill:none;"/><text fill="#000000" font-family="sans-serif" font-size="11" lengthAdjust="spacing" textLength="99" x="499" y="309.9456">parameters: String</text><line style="stroke:#A80036;stroke-width:1.5;" x1="480" x2="608" y1="316.2659" y2="316.2659"/><!--MD5=[a1cb08978c136b857a48a32b6da0c4ea]
class hu.webhejj.perspektive.uml.UmlInheritance--><rect codeLine="70" fill="#FEFECE" filter="url(#f1txat0my34gf7)" height="54.2656" id="hu.webhejj.perspektive.uml.UmlInheritance" style="stroke:#A80036;stroke-width:1.5;" width="117" x="827.5" y="244.18"/><ellipse cx="842.5" cy="263.3128" fill="#DA70D6" rx="11" ry="11" style="stroke:#A80036;stroke-width:1.0;"/><path d="M841.5859,259.6278 L841.5859,267.6048 L842.25,267.6048 Q843.6943,267.6048 844.3086,266.6959 Q844.9229,265.7869 844.9229,263.6038 Q844.9229,261.4373 844.3086,260.5325 Q843.6943,259.6278 842.25,259.6278 Z M839.1372,257.4197 L841.7603,257.4197 Q844.7983,257.4197 846.1348,258.8682 Q847.4712,260.3167 847.4712,263.6038 Q847.4712,266.8992 846.1348,268.356 Q844.7983,269.8128 841.7603,269.8128 L839.1372,269.8128 Z " fill="#000000"/><text fill="#000000" font-family="sans-serif" font-size="12" font-style="italic" lengthAdjust="spacing" textLength="43" x="877.5" y="260.7816">«kotlin»</text><text fill="#000000" font-family="sans-serif" font-size="12" lengthAdjust="spacing" textLength="85" x="856.5" y="274.9144">UmlInheritance</text><line style="stroke:#A80036;stroke-width:1.5;" x1="828.5" x2="943.5" y1="282.4456" y2="282.4456"/><line style="stroke:#A80036;stroke-width:1.5;" x1="828.5" x2="943.5" y1="290.4456" y2="290.4456"/><!--MD5=[760681c1022d4836ea46dc12ec8d2c84]
class hu.webhejj.perspektive.uml.UmlTypeParameter--><rect codeLine="78" fill="#FEFECE" filter="url(#f1txat0my34gf7)" height="67.2207" id="hu.webhejj.perspektive.uml.UmlTypeParameter" style="stroke:#A80036;stroke-width:1.5;" width="143" x="1043.5" y="394.18"/><ellipse cx="1058.5" cy="413.3128" fill="#DA70D6" rx="11" ry="11" style="stroke:#A80036;stroke-width:1.0;"/><path d="M1057.5859,409.6278 L1057.5859,417.6048 L1058.25,417.6048 Q1059.6943,417.6048 1060.3086,416.6959 Q1060.9229,415.7869 1060.9229,413.6038 Q1060.9229,411.4373 1060.3086,410.5325 Q1059.6943,409.6278 1058.25,409.6278 Z M1055.1372,407.4197 L1057.7603,407.4197 Q1060.7983,407.4197 1062.1348,408.8682 Q1063.4712,410.3167 1063.4712,413.6038 Q1063.4712,416.8992 1062.1348,418.356 Q1060.7983,419.8128 1057.7603,419.8128 L1055.1372,419.8128 Z " fill="#000000"/><text fill="#000000" font-family="sans-serif" font-size="12" font-style="italic" lengthAdjust="spacing" textLength="43" x="1106.5" y="410.7816">«kotlin»</text><text fill="#000000" font-family="sans-serif" font-size="12" lengthAdjust="spacing" textLength="111" x="1072.5" y="424.9144">UmlTypeParameter</text><line style="stroke:#A80036;stroke-width:1.5;" x1="1044.5" x2="1185.5" y1="432.4456" y2="432.4456"/><ellipse cx="1054.5" cy="443.4456" rx="3" ry="3" style="stroke:#038048;stroke-width:1.0;fill:none;"/><text fill="#000000" font-family="sans-serif" font-size="11" lengthAdjust="spacing" textLength="67" x="1063.5" y="447.0804">name: String</text><line style="stroke:#A80036;stroke-width:1.5;" x1="1044.5" x2="1185.5" y1="453.4007" y2="453.4007"/><!--MD5=[fcc5b0c5be55ac582d32eb2e1eba6268]
class hu.webhejj.perspektive.uml.UmlClass--><rect codeLine="86" fill="#FEFECE" filter="url(#f1txat0my34gf7)" height="80.1758" id="hu.webhejj.perspektive.uml.UmlClass" style="stroke:#A80036;stroke-width:1.5;" width="130" x="479" y="41"/><ellipse cx="514.7" cy="60.1328" fill="#DA70D6" rx="11" ry="11" style="stroke:#A80036;stroke-width:1.0;"/><path d="M513.7859,56.4478 L513.7859,64.4248 L514.45,64.4248 Q515.8943,64.4248 516.5086,63.5159 Q517.1229,62.6069 517.1229,60.4238 Q517.1229,58.2573 516.5086,57.3525 Q515.8943,56.4478 514.45,56.4478 Z M511.3372,54.2397 L513.9603,54.2397 Q516.9983,54.2397 518.3348,55.6882 Q519.6712,57.1367 519.6712,60.4238 Q519.6712,63.7192 518.3348,65.176 Q516.9983,66.6328 513.9603,66.6328 L511.3372,66.6328 Z " fill="#000000"/><text fill="#000000" font-family="sans-serif" font-size="12" font-style="italic" lengthAdjust="spacing" textLength="43" x="537.8" y="57.6016">«kotlin»</text><text fill="#000000" font-family="sans-serif" font-size="12" lengthAdjust="spacing" textLength="52" x="533.3" y="71.7344">UmlClass</text><line style="stroke:#A80036;stroke-width:1.5;" x1="480" x2="608" y1="79.2656" y2="79.2656"/><ellipse cx="490" cy="90.2656" rx="3" ry="3" style="stroke:#038048;stroke-width:1.0;fill:none;"/><text fill="#000000" font-family="sans-serif" font-size="11" lengthAdjust="spacing" textLength="104" x="499" y="93.9004">isAbstract: boolean</text><ellipse cx="490" cy="103.2207" rx="3" ry="3" style="stroke:#038048;stroke-width:1.0;fill:none;"/><text fill="#000000" font-family="sans-serif" font-size="11" lengthAdjust="spacing" textLength="101" x="499" y="106.8555">stereotypes: String</text><line style="stroke:#A80036;stroke-width:1.5;" x1="480" x2="608" y1="113.1758" y2="113.1758"/><!--MD5=[1dd1a78d330f4c26773178cb5587695f]
reverse link hu.webhejj.perspektive.uml.UmlTypeProjection to hu.webhejj.perspektive.uml.UmlName--><path codeLine="42" d="M864,625.4 C864,662.67 864,717.75 864,754.52 " fill="none" id="hu.webhejj.perspektive.uml.UmlTypeProjection-backto-hu.webhejj.perspektive.uml.UmlName" style="stroke:#A80036;stroke-width:1.0;"/><polygon fill="#FFFFFF" points="864,612.62,860,618.62,864,624.62,868,618.62,864,612.62" style="stroke:#A80036;stroke-width:1.0;"/><text fill="#000000" font-family="sans-serif" font-size="13" lengthAdjust="spacing" textLength="34" x="865" y="700.7484">types</text><text fill="#000000" font-family="sans-serif" font-size="13" lengthAdjust="spacing" textLength="6" x="857.4469" y="743.4057">*</text><!--MD5=[fb4d4cb53c2548d414f208edbb41f62f]
reverse link hu.webhejj.perspektive.uml.UmlMember to hu.webhejj.perspektive.uml.UmlCardinality--><path codeLine="63" d="M495.7,335.49 C486.34,348.18 476.73,361.51 468,374.18 C429.92,429.42 388.86,494.95 362.6,537.71 " fill="none" id="hu.webhejj.perspektive.uml.UmlMember-backto-hu.webhejj.perspektive.uml.UmlCardinality" style="stroke:#A80036;stroke-width:1.0;"/><polygon fill="#FFFFFF" points="503.29,325.27,496.5033,327.7073,496.1429,334.9094,502.9296,332.4721,503.29,325.27" style="stroke:#A80036;stroke-width:1.0;"/><text fill="#000000" font-family="sans-serif" font-size="13" lengthAdjust="spacing" textLength="66" x="469" y="432.7484">cardinality</text><text fill="#000000" font-family="sans-serif" font-size="13" lengthAdjust="spacing" textLength="8" x="358.2138" y="527.028">1</text><!--MD5=[22d7c67702df40cb13068a5e79930e7d]
reverse link hu.webhejj.perspektive.uml.UmlMember to hu.webhejj.perspektive.uml.UmlMember$Kind--><path codeLine="64" d="M544,338.16 C544,398.25 544,485.38 544,537.93 " fill="none" id="hu.webhejj.perspektive.uml.UmlMember-backto-hu.webhejj.perspektive.uml.UmlMember$Kind" style="stroke:#A80036;stroke-width:1.0;"/><polygon fill="#FFFFFF" points="544,325.4,540,331.4,544,337.4,548,331.4,544,325.4" style="stroke:#A80036;stroke-width:1.0;"/><text fill="#000000" font-family="sans-serif" font-size="13" lengthAdjust="spacing" textLength="28" x="545" y="432.7484">kind</text><text fill="#000000" font-family="sans-serif" font-size="13" lengthAdjust="spacing" textLength="8" x="535.3625" y="526.9463">1</text><!--MD5=[9a5eaefa7f7ba4f0077253f9462f5955]
reverse link hu.webhejj.perspektive.uml.UmlMember to hu.webhejj.perspektive.uml.UmlName--><path codeLine="65" d="M573.98,337.07 C623.86,444.94 718.96,650.1 724,657.18 C750.04,693.76 786.63,728.9 815.87,754.3 " fill="none" id="hu.webhejj.perspektive.uml.UmlMember-backto-hu.webhejj.perspektive.uml.UmlName" style="stroke:#A80036;stroke-width:1.0;"/><polygon fill="#FFFFFF" points="568.62,325.48,567.508,332.6048,573.6571,336.3717,574.7691,329.2468,568.62,325.48" style="stroke:#A80036;stroke-width:1.0;"/><text fill="#000000" font-family="sans-serif" font-size="13" lengthAdjust="spacing" textLength="27" x="725" y="589.2484">type</text><text fill="#000000" font-family="sans-serif" font-size="13" lengthAdjust="spacing" textLength="8" x="798.5843" y="743.4408">1</text><!--MD5=[f53551d4b4d27915ef0bbc97a9a4c7c1]
reverse link hu.webhejj.perspektive.uml.UmlMember to hu.webhejj.perspektive.uml.UmlTypeProjection--><path codeLine="66" d="M621.4,309.02 C651.09,325.86 683.65,347.95 708,374.18 C744.52,413.52 732.43,437.77 764,481.18 C784.71,509.66 813.22,537.93 834.49,557.46 " fill="none" id="hu.webhejj.perspektive.uml.UmlMember-backto-hu.webhejj.perspektive.uml.UmlTypeProjection" style="stroke:#A80036;stroke-width:1.0;"/><polygon fill="#FFFFFF" points="610.21,302.85,613.5356,309.2485,620.721,308.6396,617.3954,302.2411,610.21,302.85" style="stroke:#A80036;stroke-width:1.0;"/><text fill="#000000" font-family="sans-serif" font-size="13" lengthAdjust="spacing" textLength="97" x="765" y="432.7484">typeProjections</text><text fill="#000000" font-family="sans-serif" font-size="13" lengthAdjust="spacing" textLength="6" x="820.1593" y="546.2652">*</text><!--MD5=[a1a35506924aa7bfe9ad3885245838ea]
reverse link hu.webhejj.perspektive.uml.UmlMember to hu.webhejj.perspektive.uml.UmlVisibility--><path codeLine="67" d="M466.31,302.33 C425.73,320.03 376.45,344.71 337,374.18 C276.26,419.55 218.97,485.65 182.83,531.31 " fill="none" id="hu.webhejj.perspektive.uml.UmlMember-backto-hu.webhejj.perspektive.uml.UmlVisibility" style="stroke:#A80036;stroke-width:1.0;"/><polygon fill="#FFFFFF" points="478.04,297.31,470.9504,295.9918,467.0069,302.0291,474.0965,303.3473,478.04,297.31" style="stroke:#A80036;stroke-width:1.0;"/><text fill="#000000" font-family="sans-serif" font-size="13" lengthAdjust="spacing" textLength="54" x="338" y="432.7484">visibility</text><text fill="#000000" font-family="sans-serif" font-size="13" lengthAdjust="spacing" textLength="24" x="162.603" y="520.4046">0..1</text><!--MD5=[51ad12c5136a7f2ff7ef5ed6c404426d]
reverse link hu.webhejj.perspektive.uml.UmlInheritance to hu.webhejj.perspektive.uml.UmlName--><path codeLine="74" d="M933.66,307.3 C953.52,324.9 974.4,348.03 985,374.18 C999.33,409.51 985.17,633.55 976,657.18 C961.51,694.54 932.52,729.27 907.67,754.29 " fill="none" id="hu.webhejj.perspektive.uml.UmlInheritance-backto-hu.webhejj.perspektive.uml.UmlName" style="stroke:#A80036;stroke-width:1.0;"/><polygon fill="#FFFFFF" points="923.96,299.08,925.957,306.0091,933.1211,306.8307,931.1241,299.9016,923.96,299.08" style="stroke:#A80036;stroke-width:1.0;"/><text fill="#000000" font-family="sans-serif" font-size="13" lengthAdjust="spacing" textLength="27" x="990" y="589.2484">type</text><text fill="#000000" font-family="sans-serif" font-size="13" lengthAdjust="spacing" textLength="8" x="906.7362" y="743.429">1</text><!--MD5=[d2c88c5b95187dd4e6b990ac7a6e8d64]
reverse link hu.webhejj.perspektive.uml.UmlInheritance to hu.webhejj.perspektive.uml.UmlTypeProjection--><path codeLine="75" d="M883.14,312.54 C878.55,377.5 869.64,503.42 865.82,557.49 " fill="none" id="hu.webhejj.perspektive.uml.UmlInheritance-backto-hu.webhejj.perspektive.uml.UmlTypeProjection" style="stroke:#A80036;stroke-width:1.0;"/><polygon fill="#FFFFFF" points="884.06,299.67,879.648,305.3739,883.2163,311.6403,887.6282,305.9364,884.06,299.67" style="stroke:#A80036;stroke-width:1.0;"/><text fill="#000000" font-family="sans-serif" font-size="13" lengthAdjust="spacing" textLength="97" x="879" y="432.7484">typeProjections</text><text fill="#000000" font-family="sans-serif" font-size="13" lengthAdjust="spacing" textLength="6" x="859.5176" y="546.3029">*</text><!--MD5=[a22f2c5c694a27850473f17fc79dc816]
reverse link hu.webhejj.perspektive.uml.UmlTypeParameter to hu.webhejj.perspektive.uml.UmlName--><path codeLine="83" d="M1115.59,475.04 C1113.71,536.53 1100.75,644.27 1037,704.18 C1003.03,736.1 955.41,759.47 918.73,774.23 " fill="none" id="hu.webhejj.perspektive.uml.UmlTypeParameter-backto-hu.webhejj.perspektive.uml.UmlName" style="stroke:#A80036;stroke-width:1.0;"/><polygon fill="#FFFFFF" points="1115.82,462.33,1111.7086,468.2542,1115.5959,474.3279,1119.7072,468.4037,1115.82,462.33" style="stroke:#A80036;stroke-width:1.0;"/><text fill="#000000" font-family="sans-serif" font-size="13" lengthAdjust="spacing" textLength="82" x="1114" y="589.2484">upperBounds</text><text fill="#000000" font-family="sans-serif" font-size="13" lengthAdjust="spacing" textLength="6" x="927.2791" y="764.097">*</text><!--MD5=[2775d051c4508def51323d88ffb552df]
reverse link hu.webhejj.perspektive.uml.UmlClass to hu.webhejj.perspektive.uml.UmlClass$Kind--><path codeLine="92" d="M464.17,90.75 C375.22,101.63 238.23,122.41 195,151.18 C170.44,167.52 151.48,194.23 138.19,218.21 " fill="none" id="hu.webhejj.perspektive.uml.UmlClass-backto-hu.webhejj.perspektive.uml.UmlClass$Kind" style="stroke:#A80036;stroke-width:1.0;"/><polygon fill="#FFFFFF" points="477.05,89.21,470.6174,85.9508,465.1349,90.6351,471.5675,93.8942,477.05,89.21" style="stroke:#A80036;stroke-width:1.0;"/><text fill="#000000" font-family="sans-serif" font-size="13" lengthAdjust="spacing" textLength="28" x="196" y="164.7484">kind</text><text fill="#000000" font-family="sans-serif" font-size="13" lengthAdjust="spacing" textLength="8" x="132.8886" y="207.2906">1</text><!--MD5=[ca6d0daaa89101bd953c3a6aeb5624b7]
reverse link hu.webhejj.perspektive.uml.UmlClass to hu.webhejj.perspektive.uml.UmlMember--><path codeLine="93" d="M544,135.73 C544,161.64 544,192.62 544,218.3 " fill="none" id="hu.webhejj.perspektive.uml.UmlClass-backto-hu.webhejj.perspektive.uml.UmlMember" style="stroke:#A80036;stroke-width:1.0;"/><polygon fill="#FFFFFF" points="544,123.04,540.0066,129.0444,544.0132,135.04,548.0066,129.0356,544,123.04" style="stroke:#A80036;stroke-width:1.0;"/><text fill="#000000" font-family="sans-serif" font-size="13" lengthAdjust="spacing" textLength="58" x="545" y="164.7484">members</text><text fill="#000000" font-family="sans-serif" font-size="13" lengthAdjust="spacing" textLength="6" x="537.5781" y="207.3932">*</text><!--MD5=[a2fd487a26790ff66ed61e7cdbb20b8c]
reverse link hu.webhejj.perspektive.uml.UmlClass to hu.webhejj.perspektive.uml.UmlName--><path codeLine="94" d="M482.78,130.6 C386.69,206.85 208.53,348.71 181,374.18 C119.61,430.97 82.84,433.44 52,511.18 C28.07,571.5 10.08,607.65 52,657.18 C149.95,772.89 643.09,790.22 809.25,792.76 " fill="none" id="hu.webhejj.perspektive.uml.UmlClass-backto-hu.webhejj.perspektive.uml.UmlName" style="stroke:#A80036;stroke-width:1.0;"/><polygon fill="#FFFFFF" points="492.89,122.58,485.7032,123.1714,483.4849,130.0328,490.6717,129.4414,492.89,122.58" style="stroke:#A80036;stroke-width:1.0;"/><text fill="#000000" font-family="sans-serif" font-size="13" lengthAdjust="spacing" textLength="34" x="182" y="432.7484">name</text><text fill="#000000" font-family="sans-serif" font-size="13" lengthAdjust="spacing" textLength="8" x="792.9883" y="789.0835">1</text><!--MD5=[b4873cf6cb6791d98c4d6fb93d1c8de9]
reverse link hu.webhejj.perspektive.uml.UmlClass to hu.webhejj.perspektive.uml.UmlInheritance--><path codeLine="95" d="M621.71,124.83 C688.61,161.62 782.96,213.51 838.97,244.31 " fill="none" id="hu.webhejj.perspektive.uml.UmlClass-backto-hu.webhejj.perspektive.uml.UmlInheritance" style="stroke:#A80036;stroke-width:1.0;"/><polygon fill="#FFFFFF" points="610.46,118.64,613.7918,125.0353,620.9765,124.4195,617.6448,118.0242,610.46,118.64" style="stroke:#A80036;stroke-width:1.0;"/><text fill="#000000" font-family="sans-serif" font-size="13" lengthAdjust="spacing" textLength="83" x="695" y="164.7484">superClasses</text><text fill="#000000" font-family="sans-serif" font-size="13" lengthAdjust="spacing" textLength="6" x="820.7752" y="233.5061">*</text><!--MD5=[a49d17beb81283405b99601b135dd07a]
reverse link hu.webhejj.perspektive.uml.UmlClass to hu.webhejj.perspektive.uml.UmlTypeParameter--><path codeLine="96" d="M623.83,84.7 C719.16,91.63 879.14,115.78 986,198.18 C1052.2,249.22 1089.78,344.49 1105.75,394.36 " fill="none" id="hu.webhejj.perspektive.uml.UmlClass-backto-hu.webhejj.perspektive.uml.UmlTypeParameter" style="stroke:#A80036;stroke-width:1.0;"/><polygon fill="#FFFFFF" points="610.89,83.85,616.6132,88.2369,622.8639,84.6412,617.1407,80.2543,610.89,83.85" style="stroke:#A80036;stroke-width:1.0;"/><text fill="#000000" font-family="sans-serif" font-size="13" lengthAdjust="spacing" textLength="96" x="935" y="164.7484">typeParameters</text><text fill="#000000" font-family="sans-serif" font-size="13" lengthAdjust="spacing" textLength="6" x="1097.2234" y="383.5185">*</text><!--MD5=[edd5370b7d360e81f29c619a3d7c62eb]
@startuml

enum hu.webhejj.perspektive.uml.UmlClass$Kind  << kotlin >> {
    INTERFACE
    CLASS
    DATA_CLASS
    ENUM
}




enum hu.webhejj.perspektive.uml.UmlCardinality  << kotlin >> {
    OPTIONAL
    SCALAR
    VECTOR
}




enum hu.webhejj.perspektive.uml.UmlMember$Kind  << kotlin >> {
    PROPERTY
    METHOD
    ENUM_VALUE
}




class hu.webhejj.perspektive.uml.UmlName << (D,orchid) >> << kotlin >> {
    +qualified: String
    +simple: String
}




class hu.webhejj.perspektive.uml.UmlTypeProjection << (D,orchid) >> << kotlin >> {
}


hu.webhejj.perspektive.uml.UmlTypeProjection o- - "*" hu.webhejj.perspektive.uml.UmlName:  types


enum hu.webhejj.perspektive.uml.UmlVisibility  << kotlin >> {
    PRIVATE
    PROTECTED
    PUBLIC
    INTERNAL
}




class hu.webhejj.perspektive.uml.UmlMember << (D,orchid) >> << kotlin >> {
    +isAbstract: boolean
    +isStatic: boolean
    +name: String
    +parameters: String
}


hu.webhejj.perspektive.uml.UmlMember o- - "1" hu.webhejj.perspektive.uml.UmlCardinality:  cardinality
hu.webhejj.perspektive.uml.UmlMember o- - "1" hu.webhejj.perspektive.uml.UmlMember$Kind:  kind
hu.webhejj.perspektive.uml.UmlMember o- - "1" hu.webhejj.perspektive.uml.UmlName:  type
hu.webhejj.perspektive.uml.UmlMember o- - "*" hu.webhejj.perspektive.uml.UmlTypeProjection:  typeProjections
hu.webhejj.perspektive.uml.UmlMember o- - "0..1" hu.webhejj.perspektive.uml.UmlVisibility:  visibility


class hu.webhejj.perspektive.uml.UmlInheritance << (D,orchid) >> << kotlin >> {
}


hu.webhejj.perspektive.uml.UmlInheritance o- - "1" hu.webhejj.perspektive.uml.UmlName:  type
hu.webhejj.perspektive.uml.UmlInheritance o- - "*" hu.webhejj.perspektive.uml.UmlTypeProjection:  typeProjections


class hu.webhejj.perspektive.uml.UmlTypeParameter << (D,orchid) >> << kotlin >> {
    +name: String
}


hu.webhejj.perspektive.uml.UmlTypeParameter o- - "*" hu.webhejj.perspektive.uml.UmlName:  upperBounds


class hu.webhejj.perspektive.uml.UmlClass << (D,orchid) >> << kotlin >> {
    +isAbstract: boolean
    +stereotypes: String
}


hu.webhejj.perspektive.uml.UmlClass o- - "1" hu.webhejj.perspektive.uml.UmlClass$Kind:  kind
hu.webhejj.perspektive.uml.UmlClass o- - "*" hu.webhejj.perspektive.uml.UmlMember:  members
hu.webhejj.perspektive.uml.UmlClass o- - "1" hu.webhejj.perspektive.uml.UmlName:  name
hu.webhejj.perspektive.uml.UmlClass o- - "*" hu.webhejj.perspektive.uml.UmlInheritance:  superClasses
hu.webhejj.perspektive.uml.UmlClass o- - "*" hu.webhejj.perspektive.uml.UmlTypeParameter:  typeParameters


@enduml

PlantUML version 1.2021.10(Mon Aug 30 15:43:48 CEST 2021)
(GPL source distribution)
Java Runtime: OpenJDK Runtime Environment
JVM: OpenJDK 64-Bit Server VM
Default Encoding: UTF-8
Language: en
Country: US
--></g></svg>